<?xml version="1.0" encoding="utf-8"?>
<!-- Generator: Adobe Illustrator 28.3.0, SVG Export Plug-In . SVG Version: 6.00 Build 0)  -->
<svg version="1.1" id="Layer_1" xmlns="http://www.w3.org/2000/svg" xmlns:xlink="http://www.w3.org/1999/xlink" x="0px" y="0px"
	 viewBox="0 0 360 309.6" style="enable-background:new 0 0 360 309.6;" xml:space="preserve">
<style type="text/css">
	.st0{fill:#628ABA;}
	.st1{fill:#FFFFFF;}
</style>
<path class="st0" d="M57.27,222.66c-2.05-9.78-18.25-21.89-30.74-23.24c-0.71-0.07-1.43,0.01-2.1,0.27
	c-4.09,1.56-4.52,3.3-2.85,11.27c1.89,10.54,24.68,27.87,33.36,27.52c8.68-0.35-0.46,7.32-9.14,1.63
	c-8.25-5.39-16.66-8.84-21.49-15.94c-0.73-1.06-1.62-1.99-2.66-2.75c-9.04-6.61-18.73,1.31-12.67,12.24
	c0.26,0.46,0.46,0.95,0.62,1.47c4.87,15.6,46.54,14.14,54.08,8.38c7.66-5.85-3.71,15.04-20.52,12.42
	c-16.17-7.19-15.66-1.83-24.91-4.87c-2.44-0.8-5.15,0.12-6.52,2.3c-3.88,6.16,6.91,15.78,18.48,15.96c1.11,0.02,2.17,0.45,2.98,1.2
	c9.42,8.67,18.26,5.28,21.97-4.16c3.87-9.87,15.32-16.35,15.27-22.58c-0.02-1.63-0.79,18.93-11.09,27.55
	c-10.29,8.61-9.6,18.37,7.13,18.45c16.73,0.09,17.61-9.16,15.25-17.41c-0.53-1.86-0.55-3.93-0.35-6.1c0.54-5.75,9.1-5.16,8.9,0.61
	c-0.23,6.48-1.91,12.38-3.19,14.69c-2.5,4.5-4.49,15.56,0.15,19.13c1.03,0.79,2.53,2.32,5.37,2.77c0.91,0.14,1.77,0.51,2.51,1.06
	c8.61,6.35,16.76,3.38,12.75-14.54c-3.69-21.5-4.62-33.16-16.46-46.54c-2.94-3.33-7.24-5.14-11.67-4.98
	C67.18,238.87,58.71,229.51,57.27,222.66z"/>
<path class="st0" d="M228.63,87.22c-9.81,11.19-39.7,15.02-56.89,7.64c-0.98-0.42-1.84-1.06-2.53-1.88
	c-4.16-5.01-3.45-7.58,4.56-16.71C183.96,63.99,226.2,58.2,237.19,65c11,6.8,4.76-9.82-10.66-8.81
	c-14.63,0.95-28.08-0.73-39.54,4.94c-1.71,0.85-3.56,1.39-5.47,1.62c-16.55,1.96-23.34-15.42-7.47-25.16
	c0.68-0.42,1.3-0.91,1.88-1.45c17.74-16.67,70.71,15.73,76.27,28.71c5.65,13.19,6.2-22.23-17.52-31.13
	c-26.23-2.52-21.65-9.09-35.87-11.92c-3.75-0.74-6.59-3.93-6.77-7.75c-0.55-10.82,20.49-15.41,35.64-7.17
	c1.45,0.79,3.14,1,4.75,0.63c18.56-4.36,27.55,6.53,25.45,21.47c-2.2,15.64,7.9,32.41,3.28,40.46c-1.22,2.1,12.83-25.14,5.79-43.84
	c-7.04-18.7,1-30.85,22.75-18.71s16.13,24.77,7.04,33.76c-2.05,2.02-3.59,4.7-4.92,7.67c-3.51,7.85,8.03,13.36,11.99,5.73
	c4.45-8.57,6.58-17.46,6.61-21.39c0.05-7.68,5.56-23.47,14.19-24.71c1.92-0.28,4.98-1.16,8.99,0.34c1.28,0.48,2.67,0.64,4.03,0.46
	c15.82-1.93,24.22,7.9,5.9,28.19c-20.51,25.19-30.26,39.63-55.42,48.32c-6.26,2.16-13.15,1.36-18.79-2.08
	C253.35,73.44,235.51,79.38,228.63,87.22z"/>
<path class="st0" d="M213.99,126.79c-36.57,43.46-64.34-98.28-136.13-37.09c-63.01,51.97,53.54,48.49,6.7,65.02
	c-73.71,5.1-20.21,87.65,27.95,80.58c5.74,75.08,101.76,91.38,121.98,25.78c17.69-57.36,65.02,7.34,76.3-31.44
	c4-13.73-4.82-74.65,4.34-85.53C347.88,105.2,229.29,53.6,213.99,126.79z"/>
<g>
	<path class="st1" d="M118.83,184.99c0-0.55,4.85-3.03,4.85-9.03c0-2.49-1.52-3.91-4.06-3.91h-1.24c-0.48,0-0.69,0.33-0.69,0.85
		v19.81c0,0.51-0.21,0.85-0.69,0.85h-0.94c-0.51,0-0.79-0.33-0.79-0.85v-21.03c0-0.51,0.21-0.85,0.69-0.85h4.7
		c3.76,0,5.69,1.82,5.69,5.18c0,5.12-6.31,9.36-7.09,9.36C119.02,185.38,118.83,185.23,118.83,184.99z"/>
	<path class="st1" d="M134.7,170.57c4.09,0,5.76,5.21,5.76,11.66c0,6.45-2.33,11.63-6,11.63c-4.51,0-6.61-4.58-6.61-11.63
		C127.86,175.17,130.62,170.57,134.7,170.57z M134.89,192.47c2.49,0,4.27-4.51,4.27-10.21c0-5.67-1.33-10.39-4.27-10.39
		c-2.46,0-4.21,4.72-4.21,10.39C130.68,187.96,132.44,192.47,134.89,192.47z"/>
	<path class="st1" d="M146.97,192.72c0,0.51-0.21,0.85-0.69,0.85h-0.94c-0.51,0-0.79-0.33-0.79-0.85v-21.03
		c0-0.51,0.27-0.85,0.79-0.85h0.94c0.48,0,0.69,0.33,0.69,0.85V192.72z"/>
	<path class="st1" d="M155.24,184.99c0-0.55,4.85-3.03,4.85-9.03c0-2.49-1.52-3.91-4.06-3.91h-1.24c-0.48,0-0.69,0.33-0.69,0.85
		v19.81c0,0.51-0.21,0.85-0.69,0.85h-0.94c-0.51,0-0.79-0.33-0.79-0.85v-21.03c0-0.51,0.21-0.85,0.69-0.85h4.7
		c3.76,0,5.69,1.82,5.69,5.18c0,5.12-6.31,9.36-7.09,9.36C155.42,185.38,155.24,185.23,155.24,184.99z"/>
	<path class="st1" d="M175.99,171.69c0-0.51,0.09-0.85,0.6-0.85s0.6,0.33,0.6,0.85v15.02c0,3.43-1.45,7.15-5.69,7.15
		c-3.3,0-5.27-2.72-5.27-6.61v-15.57c0-0.51,0.27-0.85,0.79-0.85h0.94c0.48,0,0.69,0.33,0.69,0.85v14.72c0,3.54,0.82,5.97,3.64,5.97
		c2.76,0,3.7-2.94,3.7-6.03L175.99,171.69L175.99,171.69z"/>
	<path class="st1" d="M192.59,184.99c0-0.55,4.85-3.03,4.85-9.03c0-2.49-1.52-3.91-4.06-3.91h-1.24c-0.48,0-0.69,0.33-0.69,0.85
		v19.81c0,0.51-0.21,0.85-0.69,0.85h-0.94c-0.51,0-0.79-0.33-0.79-0.85v-21.03c0-0.51,0.21-0.85,0.69-0.85h4.7
		c3.76,0,5.69,1.82,5.69,5.18c0,5.12-6.31,9.36-7.09,9.36C192.77,185.38,192.59,185.23,192.59,184.99z"/>
	<path class="st1" d="M205.55,185.21v6.24c0,0.51,0.27,0.91,0.79,0.91h4.24c0.51,0,0.85,0.06,0.85,0.58c0,0.51-0.33,0.64-0.85,0.64
		h-6.66c-0.51,0-0.78-0.33-0.78-0.85v-21.03c0-0.51,0.21-0.85,0.69-0.85h6.15c0.51,0,0.85,0.12,0.85,0.64
		c0,0.51-0.33,0.58-0.85,0.58h-3.73c-0.48,0-0.69,0.33-0.69,0.85v11.09h3.52c0.51,0,0.85,0.09,0.85,0.6c0,0.51-0.33,0.6-0.85,0.6
		L205.55,185.21L205.55,185.21z"/>
	<path class="st1" d="M215.43,185.69v-6.75c0-4.97,2.76-8.09,7.67-8.09h1.63c0.48,0,0.69,0.33,0.69,0.85v21.03
		c0,0.51-0.21,0.85-0.69,0.85h-0.94c-0.51,0-0.78-0.33-0.78-0.85v-5.82h-5.15v5.82c0,0.51-0.21,0.85-0.69,0.85h-0.94
		c-0.51,0-0.79-0.33-0.79-0.85v-5.82h-0.27c-0.51,0-0.85-0.09-0.85-0.6c0-0.51,0.33-0.6,0.85-0.6L215.43,185.69L215.43,185.69z
		 M217.85,185.69H223v-12.78c0-0.51-0.21-0.85-0.69-0.85c-3.12,0-4.45,2.58-4.45,7.58V185.69z"/>
	<path class="st1" d="M240.36,192.47c0.12,0.18,0.27,0.51,0.27,0.67c0,0.24-0.15,0.42-0.48,0.42h-1.33c-0.51,0-0.76-0.21-1.03-0.69
		l-4.51-7.33c-0.06-0.12-0.12-0.24-0.12-0.39c0-0.67,4.88-3.48,4.88-9.48c0-2.49-1.45-3.61-4-3.61h-1.24
		c-0.48,0-0.69,0.33-0.69,0.85v19.81c0,0.51-0.21,0.85-0.69,0.85h-0.94c-0.51,0-0.78-0.33-0.78-0.85V171.7
		c0-0.51,0.21-0.85,0.69-0.85h4.7c3.76,0,5.64,1.52,5.64,4.88c0,3.75-3.21,6.97-5.33,8.54L240.36,192.47z"/>
	<path class="st1" d="M247.06,192.35h5.3c0.51,0,0.85,0.12,0.85,0.64s-0.33,0.58-0.85,0.58h-6.93c-0.51,0-0.79-0.33-0.79-0.85
		v-21.03c0-0.51,0.27-0.85,0.79-0.85h0.94c0.48,0,0.69,0.33,0.69,0.85V192.35z"/>
	<path class="st1" d="M259.78,193.87c-3.24,0-4.61-2.94-4.61-6.54c0-0.69,0.15-1.03,0.67-1.03s0.55,0.33,0.55,1.06
		c0,3.03,1.45,5.12,3.06,5.12c1.82,0,2.88-2.03,2.88-4.12c0-6.18-6.33-6.73-6.33-12.06c0-3.27,2.28-5.76,4.85-5.76
		c2.63,0,3.45,1.64,3.45,4.97c0,0.51-0.06,0.85-0.58,0.85c-0.51,0-0.64-0.33-0.64-0.85c0-2.37-0.67-3.57-2-3.57
		c-1.31,0-2.39,1.57-2.39,3.18c0,4.93,6.33,6.15,6.33,12.02C265.02,191.14,262.75,193.87,259.78,193.87z"/>
</g>
</svg>
